<svg xmlns="http://www.w3.org/2000/svg" width="212.571" height="36.96" xmlns:v="https://vecta.io/nano"><style><![CDATA[.B{clip-rule:evenodd}.C{fill:#212529}.D{fill-rule:evenodd}.E{stroke-width:.801}]]></style><defs><clipPath id="A"><path d="M25.6 43.84h214.72V65.6H25.6z" class="B"/></clipPath><clipPath id="B"><path d="M140.64 26.56h23.04v21.28h-23.04z" class="B"/></clipPath><clipPath id="C"><path d="M-154.28-37.91v1122.56h793.44V-37.91z" class="B"/></clipPath><clipPath id="D"><path d="M-189.53-38.07v1122.56h793.44V-38.07z" class="B"/></clipPath><clipPath id="E"><path d="M-208.77-35.19v1122.56h793.44V-35.19z" class="B"/></clipPath></defs><path d="M0 19.2h212.48v17.76H0z" fill="#fff2cc"/><g transform="translate(-25.6 -26.56)" class="E"><g clip-path="url(#A)"><path d="M26.07 46.08h211.7v16.98H26.07z" fill="none" stroke="#ffcd00"/></g><g clip-path="url(#B)"><path d="M142.9 27.02h18.27v18.42H142.9z" fill="none" stroke="#000"/></g></g><g clip-path="url(#C)" transform="translate(129 11.35)" class="C"><path d="M0 0h-2.25v2.24h-.64V0h-2.24v-.8h2.24v-2.24h.64V-.8H0z"/></g><path d="M135.84 0h19.36v.8h-19.36zm0 18.4h19.36v.8h-19.36z" class="D"/><path d="M154.4 0h.8v19.2h-.8z"/><path d="M142.56 10.56h5.28v.8h-5.28z" class="C"/><path d="M155.2 0h19.2v.8h-19.2zm0 18.4h19.2v.8h-19.2z" class="D"/><path d="M173.6 0h.8v19.2h-.8z"/><g clip-path="url(#D)" transform="translate(164.25 11.51)" class="C"><path d="M0 0h-.16c-.16 0-.16 0-.16-.16-.16 0-.16 0-.16-.16v-.16-.32s0-.16.16-.16c0 0 0-.16.16-.16H0h.33l.16.16.16.16v.32.16c0 .16-.16.16-.16.16C.49 0 .33 0 .33 0H0z"/></g><path d="M174.24 0h19.2v.8h-19.2zm0 18.4h19.2v.8h-19.2z" class="D"/><path d="M192.64 0h.8v19.2h-.8z"/><g clip-path="url(#E)" transform="translate(183.49 8.63)" class="C"><path d="M0 0c-.16 0-.32-.16-.48-.16-.17-.16-.17-.32-.17-.48s0-.32.17-.48c.16-.16.32-.16.48-.16s.32 0 .48.16c0 .16.16.32.16.48s-.16.32-.16.48C.32-.16.16 0 0 0zm0 4.64c-.16 0-.32 0-.48-.16-.17-.16-.17-.32-.17-.48s0-.32.17-.48c.16 0 .32-.16.48-.16s.32.16.48.16c0 .16.16.32.16.48s-.16.32-.16.48c-.16.16-.32.16-.48.16z"/></g><path d="M193.28 0h19.2v.8h-19.2zm0 18.4h19.2v.8h-19.2z" class="D"/><path d="M211.68 0h.8v19.2h-.8z"/></svg>