<svg xmlns="http://www.w3.org/2000/svg" xmlns:xlink="http://www.w3.org/1999/xlink" width="500" height="118" xmlns:v="https://vecta.io/nano"><style><![CDATA[.B{fill:#000}.C{font-family:Arial}.D{text-decoration:normal}.E{dominant-baseline:central}.F{font-size:18px}.G{stroke-miterlimit:10}.H{stroke:#000}.I{fill:none}.J{fill:#fff}.K{stroke-width:3}.L{font-size:20px}.M{stroke-linecap:round}.N{stroke-width:2}.O{fill:#ffffe0}.P{stroke:#00f}]]></style><g class="J"><use xlink:href="#B"/><use xlink:href="#B"/><use xlink:href="#B"/></g><text y="50" x="329.989" class="B C D E F">40</text><use xlink:href="#B" class="J"/><text y="50" x="329.989" class="B C D E F">40</text><text y="50" x="249.989" class="B C D E F">30</text><use xlink:href="#B" class="J"/><text y="50" x="329.989" class="B C D E F">40</text><text y="50" x="249.989" class="B C D E F">30</text><text y="50" x="169.989" class="B C D E F">20</text><use xlink:href="#B" class="J"/><text y="50" x="329.989" class="B C D E F">40</text><text y="50" x="249.989" class="B C D E F">30</text><text y="50" x="169.989" class="B C D E F">20</text><text y="50" x="89.989" class="B C D E F">10</text><use xlink:href="#B" class="J"/><text y="50" x="329.989" class="B C D E F">40</text><text y="50" x="249.989" class="B C D E F">30</text><text y="50" x="169.989" class="B C D E F">20</text><text y="50" x="89.989" class="B C D E F">10</text><path paint-order="fill stroke markers" d="M420 4v32" class="G H I K"/><use xlink:href="#B" class="J"/><text y="50" x="329.989" class="B C D E F">40</text><text y="50" x="249.989" class="B C D E F">30</text><text y="50" x="169.989" class="B C D E F">20</text><text y="50" x="89.989" class="B C D E F">10</text><path paint-order="fill stroke markers" d="M420 4v32M340 4v32" class="G H I K"/><use xlink:href="#B" class="J"/><text y="50" x="329.989" class="B C D E F">40</text><text y="50" x="249.989" class="B C D E F">30</text><text y="50" x="169.989" class="B C D E F">20</text><text y="50" x="89.989" class="B C D E F">10</text><path paint-order="fill stroke markers" d="M420 4v32M340 4v32M260 4v32" class="G H I K"/><use xlink:href="#B" class="J"/><text y="50" x="329.989" class="B C D E F">40</text><text y="50" x="249.989" class="B C D E F">30</text><text y="50" x="169.989" class="B C D E F">20</text><text y="50" x="89.989" class="B C D E F">10</text><path paint-order="fill stroke markers" d="M420 4v32M340 4v32M260 4v32M180 4v32" class="G H I K"/><use xlink:href="#B" class="J"/><text y="50" x="329.989" class="B C D E F">40</text><text y="50" x="249.989" class="B C D E F">30</text><text y="50" x="169.989" class="B C D E F">20</text><text y="50" x="89.989" class="B C D E F">10</text><path paint-order="fill stroke markers" d="M420 4v32M340 4v32M260 4v32M180 4v32M100 4v32" class="G H I K"/><use xlink:href="#B" class="J"/><text y="50" x="329.989" class="B C D E F">40</text><text y="50" x="249.989" class="B C D E F">30</text><text y="50" x="169.989" class="B C D E F">20</text><text y="50" x="89.989" class="B C D E F">10</text><path paint-order="fill stroke markers" d="M420 4v32M340 4v32M260 4v32M180 4v32M100 4v32M20 4v32" class="G H I K"/><use xlink:href="#B" class="J"/><text y="50" x="329.989" class="B C D E F">40</text><text y="50" x="249.989" class="B C D E F">30</text><text y="50" x="169.989" class="B C D E F">20</text><text y="50" x="89.989" class="B C D E F">10</text><g class="G H I"><path paint-order="fill stroke markers" d="M420 4v32M340 4v32M260 4v32M180 4v32M100 4v32M20 4v32" class="K"/><path paint-order="fill stroke markers" d="M380 6.5v27"/></g><use xlink:href="#B" class="J"/><text y="50" x="329.989" class="B C D E F">40</text><text y="50" x="249.989" class="B C D E F">30</text><text y="50" x="169.989" class="B C D E F">20</text><text y="50" x="89.989" class="B C D E F">10</text><g class="G H I"><path paint-order="fill stroke markers" d="M420 4v32M340 4v32M260 4v32M180 4v32M100 4v32M20 4v32" class="K"/><path paint-order="fill stroke markers" d="M380 6.5v27m-80-27v27"/></g><use xlink:href="#B" class="J"/><text y="50" x="329.989" class="B C D E F">40</text><text y="50" x="249.989" class="B C D E F">30</text><text y="50" x="169.989" class="B C D E F">20</text><text y="50" x="89.989" class="B C D E F">10</text><g class="G H I"><path paint-order="fill stroke markers" d="M420 4v32M340 4v32M260 4v32M180 4v32M100 4v32M20 4v32" class="K"/><path paint-order="fill stroke markers" d="M380 6.5v27m-80-27v27m-80-27v27"/></g><use xlink:href="#B" class="J"/><text y="50" x="329.989" class="B C D E F">40</text><text y="50" x="249.989" class="B C D E F">30</text><text y="50" x="169.989" class="B C D E F">20</text><text y="50" x="89.989" class="B C D E F">10</text><g class="G H I"><path paint-order="fill stroke markers" d="M420 4v32M340 4v32M260 4v32M180 4v32M100 4v32M20 4v32" class="K"/><path paint-order="fill stroke markers" d="M380 6.5v27m-80-27v27m-80-27v27m-80-27v27"/></g><use xlink:href="#B" class="J"/><text y="50" x="329.989" class="B C D E F">40</text><text y="50" x="249.989" class="B C D E F">30</text><text y="50" x="169.989" class="B C D E F">20</text><text y="50" x="89.989" class="B C D E F">10</text><g class="G H I"><path paint-order="fill stroke markers" d="M420 4v32M340 4v32M260 4v32M180 4v32M100 4v32M20 4v32" class="K"/><path paint-order="fill stroke markers" d="M380 6.5v27m-80-27v27m-80-27v27m-80-27v27m-80-27v27"/></g><use xlink:href="#B" class="J"/><text y="50" x="329.989" class="B C D E F">40</text><text y="50" x="249.989" class="B C D E F">30</text><text y="50" x="169.989" class="B C D E F">20</text><text y="50" x="89.989" class="B C D E F">10</text><g class="G H I"><path paint-order="fill stroke markers" d="M420 4v32M340 4v32M260 4v32M180 4v32M100 4v32M20 4v32" class="K"/><path paint-order="fill stroke markers" d="M380 6.5v27m-80-27v27m-80-27v27m-80-27v27m-80-27v27m352-21v15"/></g><use xlink:href="#B" class="J"/><text y="50" x="329.989" class="B C D E F">40</text><text y="50" x="249.989" class="B C D E F">30</text><text y="50" x="169.989" class="B C D E F">20</text><text y="50" x="89.989" class="B C D E F">10</text><g class="G H I"><path paint-order="fill stroke markers" d="M420 4v32M340 4v32M260 4v32M180 4v32M100 4v32M20 4v32" class="K"/><path paint-order="fill stroke markers" d="M380 6.5v27m-80-27v27m-80-27v27m-80-27v27m-80-27v27m352-21v15m-8-15v15"/></g><use xlink:href="#B" class="J"/><text y="50" x="329.989" class="B C D E F">40</text><text y="50" x="249.989" class="B C D E F">30</text><text y="50" x="169.989" class="B C D E F">20</text><text y="50" x="89.989" class="B C D E F">10</text><g class="G H I"><path paint-order="fill stroke markers" d="M420 4v32M340 4v32M260 4v32M180 4v32M100 4v32M20 4v32" class="K"/><path paint-order="fill stroke markers" d="M380 6.5v27m-80-27v27m-80-27v27m-80-27v27m-80-27v27m352-21v15m-8-15v15m-8-15v15"/></g><use xlink:href="#B" class="J"/><text y="50" x="329.989" class="B C D E F">40</text><text y="50" x="249.989" class="B C D E F">30</text><text y="50" x="169.989" class="B C D E F">20</text><text y="50" x="89.989" class="B C D E F">10</text><g class="G H I"><path paint-order="fill stroke markers" d="M420 4v32M340 4v32M260 4v32M180 4v32M100 4v32M20 4v32" class="K"/><path paint-order="fill stroke markers" d="M380 6.5v27m-80-27v27m-80-27v27m-80-27v27m-80-27v27m352-21v15m-8-15v15m-8-15v15m-8-15v15"/></g><use xlink:href="#B" class="J"/><text y="50" x="329.989" class="B C D E F">40</text><text y="50" x="249.989" class="B C D E F">30</text><text y="50" x="169.989" class="B C D E F">20</text><text y="50" x="89.989" class="B C D E F">10</text><g class="G H I"><path paint-order="fill stroke markers" d="M420 4v32M340 4v32M260 4v32M180 4v32M100 4v32M20 4v32" class="K"/><path paint-order="fill stroke markers" d="M380 6.5v27m-80-27v27m-80-27v27m-80-27v27m-80-27v27m352-21v15m-8-15v15m-8-15v15m-8-15v15m-16-15v15"/></g><use xlink:href="#B" class="J"/><text y="50" x="329.989" class="B C D E F">40</text><text y="50" x="249.989" class="B C D E F">30</text><text y="50" x="169.989" class="B C D E F">20</text><text y="50" x="89.989" class="B C D E F">10</text><g class="G H I"><path paint-order="fill stroke markers" d="M420 4v32M340 4v32M260 4v32M180 4v32M100 4v32M20 4v32" class="K"/><path paint-order="fill stroke markers" d="M380 6.5v27m-80-27v27m-80-27v27m-80-27v27m-80-27v27m352-21v15m-8-15v15m-8-15v15m-8-15v15m-16-15v15m-8-15v15"/></g><use xlink:href="#B" class="J"/><text y="50" x="329.989" class="B C D E F">40</text><text y="50" x="249.989" class="B C D E F">30</text><text y="50" x="169.989" class="B C D E F">20</text><text y="50" x="89.989" class="B C D E F">10</text><g class="G H I"><path paint-order="fill stroke markers" d="M420 4v32M340 4v32M260 4v32M180 4v32M100 4v32M20 4v32" class="K"/><path paint-order="fill stroke markers" d="M380 6.5v27m-80-27v27m-80-27v27m-80-27v27m-80-27v27m352-21v15m-8-15v15m-8-15v15m-8-15v15m-16-15v15m-8-15v15m-8-15v15"/></g><use xlink:href="#B" class="J"/><text y="50" x="329.989" class="B C D E F">40</text><text y="50" x="249.989" class="B C D E F">30</text><text y="50" x="169.989" class="B C D E F">20</text><text y="50" x="89.989" class="B C D E F">10</text><g class="G H I"><path paint-order="fill stroke markers" d="M420 4v32M340 4v32M260 4v32M180 4v32M100 4v32M20 4v32" class="K"/><path paint-order="fill stroke markers" d="M380 6.5v27m-80-27v27m-80-27v27m-80-27v27m-80-27v27m352-21v15m-8-15v15m-8-15v15m-8-15v15m-16-15v15m-8-15v15m-8-15v15m-8-15v15"/></g><use xlink:href="#B" class="J"/><text y="50" x="329.989" class="B C D E F">40</text><text y="50" x="249.989" class="B C D E F">30</text><text y="50" x="169.989" class="B C D E F">20</text><text y="50" x="89.989" class="B C D E F">10</text><g class="G H I"><path paint-order="fill stroke markers" d="M420 4v32M340 4v32M260 4v32M180 4v32M100 4v32M20 4v32" class="K"/><path paint-order="fill stroke markers" d="M380 6.5v27m-80-27v27m-80-27v27m-80-27v27m-80-27v27m352-21v15m-8-15v15m-8-15v15m-8-15v15m-16-15v15m-8-15v15m-8-15v15m-8-15v15m-16-15v15"/></g><use xlink:href="#B" class="J"/><text y="50" x="329.989" class="B C D E F">40</text><text y="50" x="249.989" class="B C D E F">30</text><text y="50" x="169.989" class="B C D E F">20</text><text y="50" x="89.989" class="B C D E F">10</text><g class="G H I"><path paint-order="fill stroke markers" d="M420 4v32M340 4v32M260 4v32M180 4v32M100 4v32M20 4v32" class="K"/><path paint-order="fill stroke markers" d="M380 6.5v27m-80-27v27m-80-27v27m-80-27v27m-80-27v27m352-21v15m-8-15v15m-8-15v15m-8-15v15m-16-15v15m-8-15v15m-8-15v15m-8-15v15m-16-15v15m-8-15v15"/></g><use xlink:href="#B" class="J"/><text y="50" x="329.989" class="B C D E F">40</text><text y="50" x="249.989" class="B C D E F">30</text><text y="50" x="169.989" class="B C D E F">20</text><text y="50" x="89.989" class="B C D E F">10</text><g class="G H I"><path paint-order="fill stroke markers" d="M420 4v32M340 4v32M260 4v32M180 4v32M100 4v32M20 4v32" class="K"/><path paint-order="fill stroke markers" d="M380 6.5v27m-80-27v27m-80-27v27m-80-27v27m-80-27v27m352-21v15m-8-15v15m-8-15v15m-8-15v15m-16-15v15m-8-15v15m-8-15v15m-8-15v15m-16-15v15m-8-15v15m-8-15v15"/></g><use xlink:href="#B" class="J"/><text y="50" x="329.989" class="B C D E F">40</text><text y="50" x="249.989" class="B C D E F">30</text><text y="50" x="169.989" class="B C D E F">20</text><text y="50" x="89.989" class="B C D E F">10</text><g class="G H I"><path paint-order="fill stroke markers" d="M420 4v32M340 4v32M260 4v32M180 4v32M100 4v32M20 4v32" class="K"/><path paint-order="fill stroke markers" d="M380 6.5v27m-80-27v27m-80-27v27m-80-27v27m-80-27v27m352-21v15m-8-15v15m-8-15v15m-8-15v15m-16-15v15m-8-15v15m-8-15v15m-8-15v15m-16-15v15m-8-15v15m-8-15v15m-8-15v15"/></g><use xlink:href="#B" class="J"/><text y="50" x="329.989" class="B C D E F">40</text><text y="50" x="249.989" class="B C D E F">30</text><text y="50" x="169.989" class="B C D E F">20</text><text y="50" x="89.989" class="B C D E F">10</text><g class="G H I"><path paint-order="fill stroke markers" d="M420 4v32M340 4v32M260 4v32M180 4v32M100 4v32M20 4v32" class="K"/><path paint-order="fill stroke markers" d="M380 6.5v27m-80-27v27m-80-27v27m-80-27v27m-80-27v27m352-21v15m-8-15v15m-8-15v15m-8-15v15m-16-15v15m-8-15v15m-8-15v15m-8-15v15m-16-15v15m-8-15v15m-8-15v15m-8-15v15m-16-15v15"/></g><use xlink:href="#B" class="J"/><text y="50" x="329.989" class="B C D E F">40</text><text y="50" x="249.989" class="B C D E F">30</text><text y="50" x="169.989" class="B C D E F">20</text><text y="50" x="89.989" class="B C D E F">10</text><g class="G H I"><path paint-order="fill stroke markers" d="M420 4v32M340 4v32M260 4v32M180 4v32M100 4v32M20 4v32" class="K"/><path paint-order="fill stroke markers" d="M380 6.5v27m-80-27v27m-80-27v27m-80-27v27m-80-27v27m352-21v15m-8-15v15m-8-15v15m-8-15v15m-16-15v15m-8-15v15m-8-15v15m-8-15v15m-16-15v15m-8-15v15m-8-15v15m-8-15v15m-16-15v15m-8-15v15"/></g><use xlink:href="#B" class="J"/><text y="50" x="329.989" class="B C D E F">40</text><text y="50" x="249.989" class="B C D E F">30</text><text y="50" x="169.989" class="B C D E F">20</text><text y="50" x="89.989" class="B C D E F">10</text><g class="G H I"><path paint-order="fill stroke markers" d="M420 4v32M340 4v32M260 4v32M180 4v32M100 4v32M20 4v32" class="K"/><path paint-order="fill stroke markers" d="M380 6.5v27m-80-27v27m-80-27v27m-80-27v27m-80-27v27m352-21v15m-8-15v15m-8-15v15m-8-15v15m-16-15v15m-8-15v15m-8-15v15m-8-15v15m-16-15v15m-8-15v15m-8-15v15m-8-15v15m-16-15v15m-8-15v15m-8-15v15"/></g><use xlink:href="#B" class="J"/><text y="50" x="329.989" class="B C D E F">40</text><text y="50" x="249.989" class="B C D E F">30</text><text y="50" x="169.989" class="B C D E F">20</text><text y="50" x="89.989" class="B C D E F">10</text><g class="G H I"><path paint-order="fill stroke markers" d="M420 4v32M340 4v32M260 4v32M180 4v32M100 4v32M20 4v32" class="K"/><path paint-order="fill stroke markers" d="M380 6.5v27m-80-27v27m-80-27v27m-80-27v27m-80-27v27m352-21v15m-8-15v15m-8-15v15m-8-15v15m-16-15v15m-8-15v15m-8-15v15m-8-15v15m-16-15v15m-8-15v15m-8-15v15m-8-15v15m-16-15v15m-8-15v15m-8-15v15m-8-15v15"/></g><use xlink:href="#B" class="J"/><text y="50" x="329.989" class="B C D E F">40</text><text y="50" x="249.989" class="B C D E F">30</text><text y="50" x="169.989" class="B C D E F">20</text><text y="50" x="89.989" class="B C D E F">10</text><g class="G H I"><path paint-order="fill stroke markers" d="M420 4v32M340 4v32M260 4v32M180 4v32M100 4v32M20 4v32" class="K"/><path paint-order="fill stroke markers" d="M380 6.5v27m-80-27v27m-80-27v27m-80-27v27m-80-27v27m352-21v15m-8-15v15m-8-15v15m-8-15v15m-16-15v15m-8-15v15m-8-15v15m-8-15v15m-16-15v15m-8-15v15m-8-15v15m-8-15v15m-16-15v15m-8-15v15m-8-15v15m-8-15v15m-16-15v15"/></g><use xlink:href="#B" class="J"/><text y="50" x="329.989" class="B C D E F">40</text><text y="50" x="249.989" class="B C D E F">30</text><text y="50" x="169.989" class="B C D E F">20</text><text y="50" x="89.989" class="B C D E F">10</text><g class="G H I"><path paint-order="fill stroke markers" d="M420 4v32M340 4v32M260 4v32M180 4v32M100 4v32M20 4v32" class="K"/><path paint-order="fill stroke markers" d="M380 6.5v27m-80-27v27m-80-27v27m-80-27v27m-80-27v27m352-21v15m-8-15v15m-8-15v15m-8-15v15m-16-15v15m-8-15v15m-8-15v15m-8-15v15m-16-15v15m-8-15v15m-8-15v15m-8-15v15m-16-15v15m-8-15v15m-8-15v15m-8-15v15m-16-15v15m-8-15v15"/></g><use xlink:href="#B" class="J"/><text y="50" x="329.989" class="B C D E F">40</text><text y="50" x="249.989" class="B C D E F">30</text><text y="50" x="169.989" class="B C D E F">20</text><text y="50" x="89.989" class="B C D E F">10</text><g class="G H I"><path paint-order="fill stroke markers" d="M420 4v32M340 4v32M260 4v32M180 4v32M100 4v32M20 4v32" class="K"/><path paint-order="fill stroke markers" d="M380 6.5v27m-80-27v27m-80-27v27m-80-27v27m-80-27v27m352-21v15m-8-15v15m-8-15v15m-8-15v15m-16-15v15m-8-15v15m-8-15v15m-8-15v15m-16-15v15m-8-15v15m-8-15v15m-8-15v15m-16-15v15m-8-15v15m-8-15v15m-8-15v15m-16-15v15m-8-15v15m-8-15v15"/></g><use xlink:href="#B" class="J"/><text y="50" x="329.989" class="B C D E F">40</text><text y="50" x="249.989" class="B C D E F">30</text><text y="50" x="169.989" class="B C D E F">20</text><text y="50" x="89.989" class="B C D E F">10</text><g class="G H I"><path paint-order="fill stroke markers" d="M420 4v32M340 4v32M260 4v32M180 4v32M100 4v32M20 4v32" class="K"/><path paint-order="fill stroke markers" d="M380 6.5v27m-80-27v27m-80-27v27m-80-27v27m-80-27v27m352-21v15m-8-15v15m-8-15v15m-8-15v15m-16-15v15m-8-15v15m-8-15v15m-8-15v15m-16-15v15m-8-15v15m-8-15v15m-8-15v15m-16-15v15m-8-15v15m-8-15v15m-8-15v15m-16-15v15m-8-15v15m-8-15v15m-8-15v15"/></g><use xlink:href="#B" class="J"/><text y="50" x="329.989" class="B C D E F">40</text><text y="50" x="249.989" class="B C D E F">30</text><text y="50" x="169.989" class="B C D E F">20</text><text y="50" x="89.989" class="B C D E F">10</text><g class="G H I"><path paint-order="fill stroke markers" d="M420 4v32M340 4v32M260 4v32M180 4v32M100 4v32M20 4v32" class="K"/><path paint-order="fill stroke markers" d="M380 6.5v27m-80-27v27m-80-27v27m-80-27v27m-80-27v27m352-21v15m-8-15v15m-8-15v15m-8-15v15m-16-15v15m-8-15v15m-8-15v15m-8-15v15m-16-15v15m-8-15v15m-8-15v15m-8-15v15m-16-15v15m-8-15v15m-8-15v15m-8-15v15m-16-15v15m-8-15v15m-8-15v15m-8-15v15m-16-15v15"/></g><use xlink:href="#B" class="J"/><text y="50" x="329.989" class="B C D E F">40</text><text y="50" x="249.989" class="B C D E F">30</text><text y="50" x="169.989" class="B C D E F">20</text><text y="50" x="89.989" class="B C D E F">10</text><g class="G H I"><path paint-order="fill stroke markers" d="M420 4v32M340 4v32M260 4v32M180 4v32M100 4v32M20 4v32" class="K"/><path paint-order="fill stroke markers" d="M380 6.5v27m-80-27v27m-80-27v27m-80-27v27m-80-27v27m352-21v15m-8-15v15m-8-15v15m-8-15v15m-16-15v15m-8-15v15m-8-15v15m-8-15v15m-16-15v15m-8-15v15m-8-15v15m-8-15v15m-16-15v15m-8-15v15m-8-15v15m-8-15v15m-16-15v15m-8-15v15m-8-15v15m-8-15v15m-16-15v15m-8-15v15"/></g><use xlink:href="#B" class="J"/><text y="50" x="329.989" class="B C D E F">40</text><text y="50" x="249.989" class="B C D E F">30</text><text y="50" x="169.989" class="B C D E F">20</text><text y="50" x="89.989" class="B C D E F">10</text><g class="G H I"><path paint-order="fill stroke markers" d="M420 4v32M340 4v32M260 4v32M180 4v32M100 4v32M20 4v32" class="K"/><path paint-order="fill stroke markers" d="M380 6.5v27m-80-27v27m-80-27v27m-80-27v27m-80-27v27m352-21v15m-8-15v15m-8-15v15m-8-15v15m-16-15v15m-8-15v15m-8-15v15m-8-15v15m-16-15v15m-8-15v15m-8-15v15m-8-15v15m-16-15v15m-8-15v15m-8-15v15m-8-15v15m-16-15v15m-8-15v15m-8-15v15m-8-15v15m-16-15v15m-8-15v15m-8-15v15"/></g><use xlink:href="#B" class="J"/><text y="50" x="329.989" class="B C D E F">40</text><text y="50" x="249.989" class="B C D E F">30</text><text y="50" x="169.989" class="B C D E F">20</text><text y="50" x="89.989" class="B C D E F">10</text><g class="G H I"><path paint-order="fill stroke markers" d="M420 4v32M340 4v32M260 4v32M180 4v32M100 4v32M20 4v32" class="K"/><path paint-order="fill stroke markers" d="M380 6.5v27m-80-27v27m-80-27v27m-80-27v27m-80-27v27m352-21v15m-8-15v15m-8-15v15m-8-15v15m-16-15v15m-8-15v15m-8-15v15m-8-15v15m-16-15v15m-8-15v15m-8-15v15m-8-15v15m-16-15v15m-8-15v15m-8-15v15m-8-15v15m-16-15v15m-8-15v15m-8-15v15m-8-15v15m-16-15v15m-8-15v15m-8-15v15m-8-15v15"/></g><use xlink:href="#B" class="J"/><text y="50" x="329.989" class="B C D E F">40</text><text y="50" x="249.989" class="B C D E F">30</text><text y="50" x="169.989" class="B C D E F">20</text><text y="50" x="89.989" class="B C D E F">10</text><g class="G H I"><path paint-order="fill stroke markers" d="M420 4v32M340 4v32M260 4v32M180 4v32M100 4v32M20 4v32" class="K"/><path paint-order="fill stroke markers" d="M380 6.5v27m-80-27v27m-80-27v27m-80-27v27m-80-27v27m352-21v15m-8-15v15m-8-15v15m-8-15v15m-16-15v15m-8-15v15m-8-15v15m-8-15v15m-16-15v15m-8-15v15m-8-15v15m-8-15v15m-16-15v15m-8-15v15m-8-15v15m-8-15v15m-16-15v15m-8-15v15m-8-15v15m-8-15v15m-16-15v15m-8-15v15m-8-15v15m-8-15v15m-16-15v15"/></g><use xlink:href="#B" class="J"/><text y="50" x="329.989" class="B C D E F">40</text><text y="50" x="249.989" class="B C D E F">30</text><text y="50" x="169.989" class="B C D E F">20</text><text y="50" x="89.989" class="B C D E F">10</text><g class="G H I"><path paint-order="fill stroke markers" d="M420 4v32M340 4v32M260 4v32M180 4v32M100 4v32M20 4v32" class="K"/><path paint-order="fill stroke markers" d="M380 6.5v27m-80-27v27m-80-27v27m-80-27v27m-80-27v27m352-21v15m-8-15v15m-8-15v15m-8-15v15m-16-15v15m-8-15v15m-8-15v15m-8-15v15m-16-15v15m-8-15v15m-8-15v15m-8-15v15m-16-15v15m-8-15v15m-8-15v15m-8-15v15m-16-15v15m-8-15v15m-8-15v15m-8-15v15m-16-15v15m-8-15v15m-8-15v15m-8-15v15m-16-15v15m-8-15v15"/></g><use xlink:href="#B" class="J"/><text y="50" x="329.989" class="B C D E F">40</text><text y="50" x="249.989" class="B C D E F">30</text><text y="50" x="169.989" class="B C D E F">20</text><text y="50" x="89.989" class="B C D E F">10</text><g class="G H I"><path paint-order="fill stroke markers" d="M420 4v32M340 4v32M260 4v32M180 4v32M100 4v32M20 4v32" class="K"/><path paint-order="fill stroke markers" d="M380 6.5v27m-80-27v27m-80-27v27m-80-27v27m-80-27v27m352-21v15m-8-15v15m-8-15v15m-8-15v15m-16-15v15m-8-15v15m-8-15v15m-8-15v15m-16-15v15m-8-15v15m-8-15v15m-8-15v15m-16-15v15m-8-15v15m-8-15v15m-8-15v15m-16-15v15m-8-15v15m-8-15v15m-8-15v15m-16-15v15m-8-15v15m-8-15v15m-8-15v15m-16-15v15m-8-15v15m-8-15v15"/></g><use xlink:href="#B" class="J"/><text y="50" x="329.989" class="B C D E F">40</text><text y="50" x="249.989" class="B C D E F">30</text><text y="50" x="169.989" class="B C D E F">20</text><text y="50" x="89.989" class="B C D E F">10</text><g class="G H I"><path paint-order="fill stroke markers" d="M420 4v32M340 4v32M260 4v32M180 4v32M100 4v32M20 4v32" class="K"/><path paint-order="fill stroke markers" d="M380 6.5v27m-80-27v27m-80-27v27m-80-27v27m-80-27v27m352-21v15m-8-15v15m-8-15v15m-8-15v15m-16-15v15m-8-15v15m-8-15v15m-8-15v15m-16-15v15m-8-15v15m-8-15v15m-8-15v15m-16-15v15m-8-15v15m-8-15v15m-8-15v15m-16-15v15m-8-15v15m-8-15v15m-8-15v15m-16-15v15m-8-15v15m-8-15v15m-8-15v15m-16-15v15m-8-15v15m-8-15v15m-8-15v15"/></g><use xlink:href="#B" class="J"/><text y="50" x="329.989" class="B C D E F">40</text><text y="50" x="249.989" class="B C D E F">30</text><text y="50" x="169.989" class="B C D E F">20</text><text y="50" x="89.989" class="B C D E F">10</text><g class="G H I"><path paint-order="fill stroke markers" d="M420 4v32M340 4v32M260 4v32M180 4v32M100 4v32M20 4v32" class="K"/><path paint-order="fill stroke markers" d="M380 6.5v27m-80-27v27m-80-27v27m-80-27v27m-80-27v27m352-21v15m-8-15v15m-8-15v15m-8-15v15m-16-15v15m-8-15v15m-8-15v15m-8-15v15m-16-15v15m-8-15v15m-8-15v15m-8-15v15m-16-15v15m-8-15v15m-8-15v15m-8-15v15m-16-15v15m-8-15v15m-8-15v15m-8-15v15m-16-15v15m-8-15v15m-8-15v15m-8-15v15m-16-15v15m-8-15v15m-8-15v15m-8-15v15m-16-15v15"/></g><use xlink:href="#B" class="J"/><text y="50" x="329.989" class="B C D E F">40</text><text y="50" x="249.989" class="B C D E F">30</text><text y="50" x="169.989" class="B C D E F">20</text><text y="50" x="89.989" class="B C D E F">10</text><g class="G H I"><path paint-order="fill stroke markers" d="M420 4v32M340 4v32M260 4v32M180 4v32M100 4v32M20 4v32" class="K"/><path paint-order="fill stroke markers" d="M380 6.5v27m-80-27v27m-80-27v27m-80-27v27m-80-27v27m352-21v15m-8-15v15m-8-15v15m-8-15v15m-16-15v15m-8-15v15m-8-15v15m-8-15v15m-16-15v15m-8-15v15m-8-15v15m-8-15v15m-16-15v15m-8-15v15m-8-15v15m-8-15v15m-16-15v15m-8-15v15m-8-15v15m-8-15v15m-16-15v15m-8-15v15m-8-15v15m-8-15v15m-16-15v15m-8-15v15m-8-15v15m-8-15v15m-16-15v15m-8-15v15"/></g><use xlink:href="#B" class="J"/><text y="50" x="329.989" class="B C D E F">40</text><text y="50" x="249.989" class="B C D E F">30</text><text y="50" x="169.989" class="B C D E F">20</text><text y="50" x="89.989" class="B C D E F">10</text><g class="G H I"><path paint-order="fill stroke markers" d="M420 4v32M340 4v32M260 4v32M180 4v32M100 4v32M20 4v32" class="K"/><path paint-order="fill stroke markers" d="M380 6.5v27m-80-27v27m-80-27v27m-80-27v27m-80-27v27m352-21v15m-8-15v15m-8-15v15m-8-15v15m-16-15v15m-8-15v15m-8-15v15m-8-15v15m-16-15v15m-8-15v15m-8-15v15m-8-15v15m-16-15v15m-8-15v15m-8-15v15m-8-15v15m-16-15v15m-8-15v15m-8-15v15m-8-15v15m-16-15v15m-8-15v15m-8-15v15m-8-15v15m-16-15v15m-8-15v15m-8-15v15m-8-15v15m-16-15v15m-8-15v15m-8-15v15"/></g><use xlink:href="#B" class="J"/><text y="50" x="329.989" class="B C D E F">40</text><text y="50" x="249.989" class="B C D E F">30</text><text y="50" x="169.989" class="B C D E F">20</text><text y="50" x="89.989" class="B C D E F">10</text><g class="G H I"><path paint-order="fill stroke markers" d="M420 4v32M340 4v32M260 4v32M180 4v32M100 4v32M20 4v32" class="K"/><path paint-order="fill stroke markers" d="M380 6.5v27m-80-27v27m-80-27v27m-80-27v27m-80-27v27m352-21v15m-8-15v15m-8-15v15m-8-15v15m-16-15v15m-8-15v15m-8-15v15m-8-15v15m-16-15v15m-8-15v15m-8-15v15m-8-15v15m-16-15v15m-8-15v15m-8-15v15m-8-15v15m-16-15v15m-8-15v15m-8-15v15m-8-15v15m-16-15v15m-8-15v15m-8-15v15m-8-15v15m-16-15v15m-8-15v15m-8-15v15m-8-15v15m-16-15v15m-8-15v15m-8-15v15m-8-15v15"/></g><use xlink:href="#B" class="J"/><text y="50" x="329.989" class="B C D E F">40</text><text y="50" x="249.989" class="B C D E F">30</text><text y="50" x="169.989" class="B C D E F">20</text><text y="50" x="89.989" class="B C D E F">10</text><g class="G H I"><path paint-order="fill stroke markers" d="M420 4v32M340 4v32M260 4v32M180 4v32M100 4v32M20 4v32" class="K"/><path paint-order="fill stroke markers" d="M380 6.5v27m-80-27v27m-80-27v27m-80-27v27m-80-27v27m352-21v15m-8-15v15m-8-15v15m-8-15v15m-16-15v15m-8-15v15m-8-15v15m-8-15v15m-16-15v15m-8-15v15m-8-15v15m-8-15v15m-16-15v15m-8-15v15m-8-15v15m-8-15v15m-16-15v15m-8-15v15m-8-15v15m-8-15v15m-16-15v15m-8-15v15m-8-15v15m-8-15v15m-16-15v15m-8-15v15m-8-15v15m-8-15v15m-16-15v15m-8-15v15m-8-15v15m-8-15v15m-16-15v15"/></g><use xlink:href="#B" class="J"/><text y="50" x="329.989" class="B C D E F">40</text><text y="50" x="249.989" class="B C D E F">30</text><text y="50" x="169.989" class="B C D E F">20</text><text y="50" x="89.989" class="B C D E F">10</text><g class="G H I"><path paint-order="fill stroke markers" d="M420 4v32M340 4v32M260 4v32M180 4v32M100 4v32M20 4v32" class="K"/><path paint-order="fill stroke markers" d="M380 6.5v27m-80-27v27m-80-27v27m-80-27v27m-80-27v27m352-21v15m-8-15v15m-8-15v15m-8-15v15m-16-15v15m-8-15v15m-8-15v15m-8-15v15m-16-15v15m-8-15v15m-8-15v15m-8-15v15m-16-15v15m-8-15v15m-8-15v15m-8-15v15m-16-15v15m-8-15v15m-8-15v15m-8-15v15m-16-15v15m-8-15v15m-8-15v15m-8-15v15m-16-15v15m-8-15v15m-8-15v15m-8-15v15m-16-15v15m-8-15v15m-8-15v15m-8-15v15m-16-15v15m-8-15v15"/></g><use xlink:href="#B" class="J"/><text y="50" x="329.989" class="B C D E F">40</text><text y="50" x="249.989" class="B C D E F">30</text><text y="50" x="169.989" class="B C D E F">20</text><text y="50" x="89.989" class="B C D E F">10</text><g class="G H I"><path paint-order="fill stroke markers" d="M420 4v32M340 4v32M260 4v32M180 4v32M100 4v32M20 4v32" class="K"/><path paint-order="fill stroke markers" d="M380 6.5v27m-80-27v27m-80-27v27m-80-27v27m-80-27v27m352-21v15m-8-15v15m-8-15v15m-8-15v15m-16-15v15m-8-15v15m-8-15v15m-8-15v15m-16-15v15m-8-15v15m-8-15v15m-8-15v15m-16-15v15m-8-15v15m-8-15v15m-8-15v15m-16-15v15m-8-15v15m-8-15v15m-8-15v15m-16-15v15m-8-15v15m-8-15v15m-8-15v15m-16-15v15m-8-15v15m-8-15v15m-8-15v15m-16-15v15m-8-15v15m-8-15v15m-8-15v15m-16-15v15m-8-15v15m-8-15v15"/></g><use xlink:href="#B" class="J"/><text y="50" x="329.989" class="B C D E F">40</text><text y="50" x="249.989" class="B C D E F">30</text><text y="50" x="169.989" class="B C D E F">20</text><text y="50" x="89.989" class="B C D E F">10</text><g class="G H I"><path paint-order="fill stroke markers" d="M420 4v32M340 4v32M260 4v32M180 4v32M100 4v32M20 4v32" class="K"/><path paint-order="fill stroke markers" d="M380 6.5v27m-80-27v27m-80-27v27m-80-27v27m-80-27v27m352-21v15m-8-15v15m-8-15v15m-8-15v15m-16-15v15m-8-15v15m-8-15v15m-8-15v15m-16-15v15m-8-15v15m-8-15v15m-8-15v15m-16-15v15m-8-15v15m-8-15v15m-8-15v15m-16-15v15m-8-15v15m-8-15v15m-8-15v15m-16-15v15m-8-15v15m-8-15v15m-8-15v15m-16-15v15m-8-15v15m-8-15v15m-8-15v15m-16-15v15m-8-15v15m-8-15v15m-8-15v15m-16-15v15m-8-15v15m-8-15v15m-8-15v15"/></g><use xlink:href="#B" class="J"/><text y="50" x="329.989" class="B C D E F">40</text><text y="50" x="249.989" class="B C D E F">30</text><text y="50" x="169.989" class="B C D E F">20</text><text y="50" x="89.989" class="B C D E F">10</text><g class="G H I"><path paint-order="fill stroke markers" d="M420 4v32M340 4v32M260 4v32M180 4v32M100 4v32M20 4v32" class="K"/><path paint-order="fill stroke markers" d="M380 6.5v27m-80-27v27m-80-27v27m-80-27v27m-80-27v27m352-21v15m-8-15v15m-8-15v15m-8-15v15m-16-15v15m-8-15v15m-8-15v15m-8-15v15m-16-15v15m-8-15v15m-8-15v15m-8-15v15m-16-15v15m-8-15v15m-8-15v15m-8-15v15m-16-15v15m-8-15v15m-8-15v15m-8-15v15m-16-15v15m-8-15v15m-8-15v15m-8-15v15m-16-15v15m-8-15v15m-8-15v15m-8-15v15m-16-15v15m-8-15v15m-8-15v15m-8-15v15m-16-15v15m-8-15v15m-8-15v15m-8-15v15m-16-15v15"/></g><use xlink:href="#B" class="J"/><text y="50" x="329.989" class="B C D E F">40</text><text y="50" x="249.989" class="B C D E F">30</text><text y="50" x="169.989" class="B C D E F">20</text><text y="50" x="89.989" class="B C D E F">10</text><g class="G H I"><path paint-order="fill stroke markers" d="M420 4v32M340 4v32M260 4v32M180 4v32M100 4v32M20 4v32" class="K"/><path paint-order="fill stroke markers" d="M380 6.5v27m-80-27v27m-80-27v27m-80-27v27m-80-27v27m352-21v15m-8-15v15m-8-15v15m-8-15v15m-16-15v15m-8-15v15m-8-15v15m-8-15v15m-16-15v15m-8-15v15m-8-15v15m-8-15v15m-16-15v15m-8-15v15m-8-15v15m-8-15v15m-16-15v15m-8-15v15m-8-15v15m-8-15v15m-16-15v15m-8-15v15m-8-15v15m-8-15v15m-16-15v15m-8-15v15m-8-15v15m-8-15v15m-16-15v15m-8-15v15m-8-15v15m-8-15v15m-16-15v15m-8-15v15m-8-15v15m-8-15v15m-16-15v15m-8-15v15"/></g><use xlink:href="#B" class="J"/><text y="50" x="329.989" class="B C D E F">40</text><text y="50" x="249.989" class="B C D E F">30</text><text y="50" x="169.989" class="B C D E F">20</text><text y="50" x="89.989" class="B C D E F">10</text><g class="G H I"><path paint-order="fill stroke markers" d="M420 4v32M340 4v32M260 4v32M180 4v32M100 4v32M20 4v32" class="K"/><path paint-order="fill stroke markers" d="M380 6.5v27m-80-27v27m-80-27v27m-80-27v27m-80-27v27m352-21v15m-8-15v15m-8-15v15m-8-15v15m-16-15v15m-8-15v15m-8-15v15m-8-15v15m-16-15v15m-8-15v15m-8-15v15m-8-15v15m-16-15v15m-8-15v15m-8-15v15m-8-15v15m-16-15v15m-8-15v15m-8-15v15m-8-15v15m-16-15v15m-8-15v15m-8-15v15m-8-15v15m-16-15v15m-8-15v15m-8-15v15m-8-15v15m-16-15v15m-8-15v15m-8-15v15m-8-15v15m-16-15v15m-8-15v15m-8-15v15m-8-15v15m-16-15v15m-8-15v15m-8-15v15"/></g><use xlink:href="#B" class="J"/><text y="50" x="329.989" class="B C D E F">40</text><text y="50" x="249.989" class="B C D E F">30</text><text y="50" x="169.989" class="B C D E F">20</text><text y="50" x="89.989" class="B C D E F">10</text><g class="G H I"><path paint-order="fill stroke markers" d="M420 4v32M340 4v32M260 4v32M180 4v32M100 4v32M20 4v32" class="K"/><path paint-order="fill stroke markers" d="M380 6.5v27m-80-27v27m-80-27v27m-80-27v27m-80-27v27m352-21v15m-8-15v15m-8-15v15m-8-15v15m-16-15v15m-8-15v15m-8-15v15m-8-15v15m-16-15v15m-8-15v15m-8-15v15m-8-15v15m-16-15v15m-8-15v15m-8-15v15m-8-15v15m-16-15v15m-8-15v15m-8-15v15m-8-15v15m-16-15v15m-8-15v15m-8-15v15m-8-15v15m-16-15v15m-8-15v15m-8-15v15m-8-15v15m-16-15v15m-8-15v15m-8-15v15m-8-15v15m-16-15v15m-8-15v15m-8-15v15m-8-15v15m-16-15v15m-8-15v15m-8-15v15m-8-15v15"/></g><use xlink:href="#B" class="J"/><text y="50" x="329.989" class="B C D E F">40</text><text y="50" x="249.989" class="B C D E F">30</text><text y="50" x="169.989" class="B C D E F">20</text><text y="50" x="89.989" class="B C D E F">10</text><g class="G H I"><path paint-order="fill stroke markers" d="M420 4v32M340 4v32M260 4v32M180 4v32M100 4v32M20 4v32" class="K"/><path paint-order="fill stroke markers" d="M380 6.5v27m-80-27v27m-80-27v27m-80-27v27m-80-27v27m352-21v15m-8-15v15m-8-15v15m-8-15v15m-16-15v15m-8-15v15m-8-15v15m-8-15v15m-16-15v15m-8-15v15m-8-15v15m-8-15v15m-16-15v15m-8-15v15m-8-15v15m-8-15v15m-16-15v15m-8-15v15m-8-15v15m-8-15v15m-16-15v15m-8-15v15m-8-15v15m-8-15v15m-16-15v15m-8-15v15m-8-15v15m-8-15v15m-16-15v15m-8-15v15m-8-15v15m-8-15v15m-16-15v15m-8-15v15m-8-15v15m-8-15v15m-16-15v15m-8-15v15m-8-15v15m-8-15v15"/></g><use xlink:href="#C" paint-order="fill stroke markers" class="G H"/><use xlink:href="#B" class="J"/><text y="50" x="329.989" class="B C D E F">40</text><text y="50" x="249.989" class="B C D E F">30</text><text y="50" x="169.989" class="B C D E F">20</text><text y="50" x="89.989" class="B C D E F">10</text><g class="G H I"><path paint-order="fill stroke markers" d="M420 4v32M340 4v32M260 4v32M180 4v32M100 4v32M20 4v32" class="K"/><path paint-order="fill stroke markers" d="M380 6.5v27m-80-27v27m-80-27v27m-80-27v27m-80-27v27m352-21v15m-8-15v15m-8-15v15m-8-15v15m-16-15v15m-8-15v15m-8-15v15m-8-15v15m-16-15v15m-8-15v15m-8-15v15m-8-15v15m-16-15v15m-8-15v15m-8-15v15m-8-15v15m-16-15v15m-8-15v15m-8-15v15m-8-15v15m-16-15v15m-8-15v15m-8-15v15m-8-15v15m-16-15v15m-8-15v15m-8-15v15m-8-15v15m-16-15v15m-8-15v15m-8-15v15m-8-15v15m-16-15v15m-8-15v15m-8-15v15m-8-15v15m-16-15v15m-8-15v15m-8-15v15m-8-15v15"/></g><use xlink:href="#C" paint-order="fill stroke markers" class="G H"/><path paint-order="fill stroke markers" d="M420 20h30" class="G H I"/><use xlink:href="#B" class="J"/><text y="50" x="329.989" class="B C D E F">40</text><text y="50" x="249.989" class="B C D E F">30</text><text y="50" x="169.989" class="B C D E F">20</text><text y="50" x="89.989" class="B C D E F">10</text><g class="G H I"><path paint-order="fill stroke markers" d="M420 4v32M340 4v32M260 4v32M180 4v32M100 4v32M20 4v32" class="K"/><path paint-order="fill stroke markers" d="M380 6.5v27m-80-27v27m-80-27v27m-80-27v27m-80-27v27m352-21v15m-8-15v15m-8-15v15m-8-15v15m-16-15v15m-8-15v15m-8-15v15m-8-15v15m-16-15v15m-8-15v15m-8-15v15m-8-15v15m-16-15v15m-8-15v15m-8-15v15m-8-15v15m-16-15v15m-8-15v15m-8-15v15m-8-15v15m-16-15v15m-8-15v15m-8-15v15m-8-15v15m-16-15v15m-8-15v15m-8-15v15m-8-15v15m-16-15v15m-8-15v15m-8-15v15m-8-15v15m-16-15v15m-8-15v15m-8-15v15m-8-15v15m-16-15v15m-8-15v15m-8-15v15m-8-15v15"/></g><use xlink:href="#C" paint-order="fill stroke markers" class="G H"/><path paint-order="fill stroke markers" d="M420 20h30M20 20h400" class="I G H"/><use xlink:href="#B" class="J"/><text y="50" x="329.989" class="B C D E F">40</text><text y="50" x="249.989" class="B C D E F">30</text><text y="50" x="169.989" class="B C D E F">20</text><text y="50" x="89.989" class="B C D E F">10</text><g class="G H I"><path paint-order="fill stroke markers" d="M420 4v32M340 4v32M260 4v32M180 4v32M100 4v32M20 4v32" class="K"/><path paint-order="fill stroke markers" d="M380 6.5v27m-80-27v27m-80-27v27m-80-27v27m-80-27v27m352-21v15m-8-15v15m-8-15v15m-8-15v15m-16-15v15m-8-15v15m-8-15v15m-8-15v15m-16-15v15m-8-15v15m-8-15v15m-8-15v15m-16-15v15m-8-15v15m-8-15v15m-8-15v15m-16-15v15m-8-15v15m-8-15v15m-8-15v15m-16-15v15m-8-15v15m-8-15v15m-8-15v15m-16-15v15m-8-15v15m-8-15v15m-8-15v15m-16-15v15m-8-15v15m-8-15v15m-8-15v15m-16-15v15m-8-15v15m-8-15v15m-8-15v15m-16-15v15m-8-15v15m-8-15v15m-8-15v15"/></g><use xlink:href="#C" paint-order="fill stroke markers" class="G H"/><g class="I G H"><path paint-order="fill stroke markers" d="M420 20h30M20 20h400"/><use xlink:href="#D" paint-order="fill stroke markers"/></g><text x="387.532" y="82.5" class="B C D E L">Label</text><use xlink:href="#B" class="J"/><text y="50" x="329.989" class="B C D E F">40</text><text y="50" x="249.989" class="B C D E F">30</text><text y="50" x="169.989" class="B C D E F">20</text><text y="50" x="89.989" class="B C D E F">10</text><g class="G H I"><path paint-order="fill stroke markers" d="M420 4v32M340 4v32M260 4v32M180 4v32M100 4v32M20 4v32" class="K"/><path paint-order="fill stroke markers" d="M380 6.5v27m-80-27v27m-80-27v27m-80-27v27m-80-27v27m352-21v15m-8-15v15m-8-15v15m-8-15v15m-16-15v15m-8-15v15m-8-15v15m-8-15v15m-16-15v15m-8-15v15m-8-15v15m-8-15v15m-16-15v15m-8-15v15m-8-15v15m-8-15v15m-16-15v15m-8-15v15m-8-15v15m-8-15v15m-16-15v15m-8-15v15m-8-15v15m-8-15v15m-16-15v15m-8-15v15m-8-15v15m-8-15v15m-16-15v15m-8-15v15m-8-15v15m-8-15v15m-16-15v15m-8-15v15m-8-15v15m-8-15v15m-16-15v15m-8-15v15m-8-15v15m-8-15v15"/></g><use xlink:href="#C" paint-order="fill stroke markers" class="G H"/><g class="I G H"><path paint-order="fill stroke markers" d="M420 20h30M20 20h400"/><use xlink:href="#D" paint-order="fill stroke markers"/></g><text x="387.532" y="82.5" class="B C D E L">Label</text><use xlink:href="#E" paint-order="fill stroke markers" class="G H O"/><use xlink:href="#B" class="J"/><text y="50" x="329.989" class="B C D E F">40</text><text y="50" x="249.989" class="B C D E F">30</text><text y="50" x="169.989" class="B C D E F">20</text><text y="50" x="89.989" class="B C D E F">10</text><g class="G H I"><path paint-order="fill stroke markers" d="M420 4v32M340 4v32M260 4v32M180 4v32M100 4v32M20 4v32" class="K"/><path paint-order="fill stroke markers" d="M380 6.5v27m-80-27v27m-80-27v27m-80-27v27m-80-27v27m352-21v15m-8-15v15m-8-15v15m-8-15v15m-16-15v15m-8-15v15m-8-15v15m-8-15v15m-16-15v15m-8-15v15m-8-15v15m-8-15v15m-16-15v15m-8-15v15m-8-15v15m-8-15v15m-16-15v15m-8-15v15m-8-15v15m-8-15v15m-16-15v15m-8-15v15m-8-15v15m-8-15v15m-16-15v15m-8-15v15m-8-15v15m-8-15v15m-16-15v15m-8-15v15m-8-15v15m-8-15v15m-16-15v15m-8-15v15m-8-15v15m-8-15v15m-16-15v15m-8-15v15m-8-15v15m-8-15v15"/></g><use xlink:href="#C" paint-order="fill stroke markers" class="G H"/><g class="I G H"><path paint-order="fill stroke markers" d="M420 20h30M20 20h400"/><use xlink:href="#D" paint-order="fill stroke markers"/></g><text x="387.532" y="82.5" class="B C D E L">Label</text><g class="G H O"><use xlink:href="#E" paint-order="fill stroke markers"/><use xlink:href="#F" paint-order="fill stroke markers"/></g><text x="128.877" y="92.5" class="B C D E L">10</text><use xlink:href="#B" class="J"/><text y="50" x="329.989" class="B C D E F">40</text><text y="50" x="249.989" class="B C D E F">30</text><text y="50" x="169.989" class="B C D E F">20</text><text y="50" x="89.989" class="B C D E F">10</text><g class="G H I"><path paint-order="fill stroke markers" d="M420 4v32M340 4v32M260 4v32M180 4v32M100 4v32M20 4v32" class="K"/><path paint-order="fill stroke markers" d="M380 6.5v27m-80-27v27m-80-27v27m-80-27v27m-80-27v27m352-21v15m-8-15v15m-8-15v15m-8-15v15m-16-15v15m-8-15v15m-8-15v15m-8-15v15m-16-15v15m-8-15v15m-8-15v15m-8-15v15m-16-15v15m-8-15v15m-8-15v15m-8-15v15m-16-15v15m-8-15v15m-8-15v15m-8-15v15m-16-15v15m-8-15v15m-8-15v15m-8-15v15m-16-15v15m-8-15v15m-8-15v15m-8-15v15m-16-15v15m-8-15v15m-8-15v15m-8-15v15m-16-15v15m-8-15v15m-8-15v15m-8-15v15m-16-15v15m-8-15v15m-8-15v15m-8-15v15"/></g><use xlink:href="#C" paint-order="fill stroke markers" class="G H"/><g class="I G H"><path paint-order="fill stroke markers" d="M420 20h30M20 20h400"/><use xlink:href="#D" paint-order="fill stroke markers"/></g><text x="387.532" y="82.5" class="B C D E L">Label</text><g class="G H O"><use xlink:href="#E" paint-order="fill stroke markers"/><use xlink:href="#F" paint-order="fill stroke markers"/></g><text x="128.877" y="92.5" class="B C D E L">10</text><use xlink:href="#D" x="-368" paint-order="fill stroke markers" class="G H I"/><text x="19.532" y="82.5" class="B C D E L">Label</text><use xlink:href="#B" class="J"/><text y="50" x="329.989" class="B C D E F">40</text><text y="50" x="249.989" class="B C D E F">30</text><text y="50" x="169.989" class="B C D E F">20</text><text y="50" x="89.989" class="B C D E F">10</text><g class="G H I"><path paint-order="fill stroke markers" d="M420 4v32M340 4v32M260 4v32M180 4v32M100 4v32M20 4v32" class="K"/><path paint-order="fill stroke markers" d="M380 6.5v27m-80-27v27m-80-27v27m-80-27v27m-80-27v27m352-21v15m-8-15v15m-8-15v15m-8-15v15m-16-15v15m-8-15v15m-8-15v15m-8-15v15m-16-15v15m-8-15v15m-8-15v15m-8-15v15m-16-15v15m-8-15v15m-8-15v15m-8-15v15m-16-15v15m-8-15v15m-8-15v15m-8-15v15m-16-15v15m-8-15v15m-8-15v15m-8-15v15m-16-15v15m-8-15v15m-8-15v15m-8-15v15m-16-15v15m-8-15v15m-8-15v15m-8-15v15m-16-15v15m-8-15v15m-8-15v15m-8-15v15m-16-15v15m-8-15v15m-8-15v15m-8-15v15"/></g><use xlink:href="#C" paint-order="fill stroke markers" class="G H"/><g class="I G H"><path paint-order="fill stroke markers" d="M420 20h30M20 20h400"/><use xlink:href="#D" paint-order="fill stroke markers"/></g><text x="387.532" y="82.5" class="B C D E L">Label</text><g class="G H O"><use xlink:href="#E" paint-order="fill stroke markers"/><use xlink:href="#F" paint-order="fill stroke markers"/></g><text x="128.877" y="92.5" class="B C D E L">10</text><use xlink:href="#D" x="-368" paint-order="fill stroke markers" class="G H I"/><text x="19.532" y="82.5" class="B C D E L">Label</text><path paint-order="fill stroke markers" d="M420 45V10" class="G H I M N"/><use xlink:href="#B" class="J"/><text y="50" x="329.989" class="B C D E F">40</text><text y="50" x="249.989" class="B C D E F">30</text><text y="50" x="169.989" class="B C D E F">20</text><text y="50" x="89.989" class="B C D E F">10</text><g class="G H I"><path paint-order="fill stroke markers" d="M420 4v32M340 4v32M260 4v32M180 4v32M100 4v32M20 4v32" class="K"/><path paint-order="fill stroke markers" d="M380 6.5v27m-80-27v27m-80-27v27m-80-27v27m-80-27v27m352-21v15m-8-15v15m-8-15v15m-8-15v15m-16-15v15m-8-15v15m-8-15v15m-8-15v15m-16-15v15m-8-15v15m-8-15v15m-8-15v15m-16-15v15m-8-15v15m-8-15v15m-8-15v15m-16-15v15m-8-15v15m-8-15v15m-8-15v15m-16-15v15m-8-15v15m-8-15v15m-8-15v15m-16-15v15m-8-15v15m-8-15v15m-8-15v15m-16-15v15m-8-15v15m-8-15v15m-8-15v15m-16-15v15m-8-15v15m-8-15v15m-8-15v15m-16-15v15m-8-15v15m-8-15v15m-8-15v15"/></g><use xlink:href="#C" paint-order="fill stroke markers" class="G H"/><g class="I G H"><path paint-order="fill stroke markers" d="M420 20h30M20 20h400"/><use xlink:href="#D" paint-order="fill stroke markers"/></g><text x="387.532" y="82.5" class="B C D E L">Label</text><g class="G H O"><use xlink:href="#E" paint-order="fill stroke markers"/><use xlink:href="#F" paint-order="fill stroke markers"/></g><text x="128.877" y="92.5" class="B C D E L">10</text><use xlink:href="#D" x="-368" paint-order="fill stroke markers" class="G H I"/><text x="19.532" y="82.5" class="B C D E L">Label</text><path paint-order="fill stroke markers" d="M420 45V10m-8 60c0-20 8-5 8-25" class="G H I M N"/><use xlink:href="#B" class="J"/><text y="50" x="329.989" class="B C D E F">40</text><text y="50" x="249.989" class="B C D E F">30</text><text y="50" x="169.989" class="B C D E F">20</text><text y="50" x="89.989" class="B C D E F">10</text><g class="G H I"><path paint-order="fill stroke markers" d="M420 4v32M340 4v32M260 4v32M180 4v32M100 4v32M20 4v32" class="K"/><path paint-order="fill stroke markers" d="M380 6.5v27m-80-27v27m-80-27v27m-80-27v27m-80-27v27m352-21v15m-8-15v15m-8-15v15m-8-15v15m-16-15v15m-8-15v15m-8-15v15m-8-15v15m-16-15v15m-8-15v15m-8-15v15m-8-15v15m-16-15v15m-8-15v15m-8-15v15m-8-15v15m-16-15v15m-8-15v15m-8-15v15m-8-15v15m-16-15v15m-8-15v15m-8-15v15m-8-15v15m-16-15v15m-8-15v15m-8-15v15m-8-15v15m-16-15v15m-8-15v15m-8-15v15m-8-15v15m-16-15v15m-8-15v15m-8-15v15m-8-15v15m-16-15v15m-8-15v15m-8-15v15m-8-15v15"/></g><use xlink:href="#C" paint-order="fill stroke markers" class="G H"/><g class="I G H"><path paint-order="fill stroke markers" d="M420 20h30M20 20h400"/><use xlink:href="#D" paint-order="fill stroke markers"/></g><text x="387.532" y="82.5" class="B C D E L">Label</text><g class="G H O"><use xlink:href="#E" paint-order="fill stroke markers"/><use xlink:href="#F" paint-order="fill stroke markers"/></g><text x="128.877" y="92.5" class="B C D E L">10</text><use xlink:href="#D" x="-368" paint-order="fill stroke markers" class="G H I"/><text x="19.532" y="82.5" class="B C D E L">Label</text><g class="I G M N"><path paint-order="fill stroke markers" d="M420 45V10m-8 60c0-20 8-5 8-25" class="H"/><path paint-order="fill stroke markers" d="M300 45V10" class="P"/></g><use xlink:href="#B" class="J"/><text y="50" x="329.989" class="B C D E F">40</text><text y="50" x="249.989" class="B C D E F">30</text><text y="50" x="169.989" class="B C D E F">20</text><text y="50" x="89.989" class="B C D E F">10</text><g class="G H I"><path paint-order="fill stroke markers" d="M420 4v32M340 4v32M260 4v32M180 4v32M100 4v32M20 4v32" class="K"/><path paint-order="fill stroke markers" d="M380 6.5v27m-80-27v27m-80-27v27m-80-27v27m-80-27v27m352-21v15m-8-15v15m-8-15v15m-8-15v15m-16-15v15m-8-15v15m-8-15v15m-8-15v15m-16-15v15m-8-15v15m-8-15v15m-8-15v15m-16-15v15m-8-15v15m-8-15v15m-8-15v15m-16-15v15m-8-15v15m-8-15v15m-8-15v15m-16-15v15m-8-15v15m-8-15v15m-8-15v15m-16-15v15m-8-15v15m-8-15v15m-8-15v15m-16-15v15m-8-15v15m-8-15v15m-8-15v15m-16-15v15m-8-15v15m-8-15v15m-8-15v15m-16-15v15m-8-15v15m-8-15v15m-8-15v15"/></g><use xlink:href="#C" paint-order="fill stroke markers" class="G H"/><g class="I G H"><path paint-order="fill stroke markers" d="M420 20h30M20 20h400"/><use xlink:href="#D" paint-order="fill stroke markers"/></g><text x="387.532" y="82.5" class="B C D E L">Label</text><g class="G H O"><use xlink:href="#E" paint-order="fill stroke markers"/><use xlink:href="#F" paint-order="fill stroke markers"/></g><text x="128.877" y="92.5" class="B C D E L">10</text><use xlink:href="#D" x="-368" paint-order="fill stroke markers" class="G H I"/><text x="19.532" y="82.5" class="B C D E L">Label</text><g class="I G M N"><path paint-order="fill stroke markers" d="M420 45V10m-8 60c0-20 8-5 8-25" class="H"/><path paint-order="fill stroke markers" d="M300 45V10m-40 75c0-20 40-20 40-40" class="P"/></g><use xlink:href="#B" class="J"/><text y="50" x="329.989" class="B C D E F">40</text><text y="50" x="249.989" class="B C D E F">30</text><text y="50" x="169.989" class="B C D E F">20</text><text y="50" x="89.989" class="B C D E F">10</text><g class="G H I"><path paint-order="fill stroke markers" d="M420 4v32M340 4v32M260 4v32M180 4v32M100 4v32M20 4v32" class="K"/><path paint-order="fill stroke markers" d="M380 6.5v27m-80-27v27m-80-27v27m-80-27v27m-80-27v27m352-21v15m-8-15v15m-8-15v15m-8-15v15m-16-15v15m-8-15v15m-8-15v15m-8-15v15m-16-15v15m-8-15v15m-8-15v15m-8-15v15m-16-15v15m-8-15v15m-8-15v15m-8-15v15m-16-15v15m-8-15v15m-8-15v15m-8-15v15m-16-15v15m-8-15v15m-8-15v15m-8-15v15m-16-15v15m-8-15v15m-8-15v15m-8-15v15m-16-15v15m-8-15v15m-8-15v15m-8-15v15m-16-15v15m-8-15v15m-8-15v15m-8-15v15m-16-15v15m-8-15v15m-8-15v15m-8-15v15"/></g><use xlink:href="#C" paint-order="fill stroke markers" class="G H"/><g class="I G H"><path paint-order="fill stroke markers" d="M420 20h30M20 20h400"/><use xlink:href="#D" paint-order="fill stroke markers"/></g><text x="387.532" y="82.5" class="B C D E L">Label</text><g class="G H O"><use xlink:href="#E" paint-order="fill stroke markers"/><use xlink:href="#F" paint-order="fill stroke markers"/></g><text x="128.877" y="92.5" class="B C D E L">10</text><use xlink:href="#D" x="-368" paint-order="fill stroke markers" class="G H I"/><text x="19.532" y="82.5" class="B C D E L">Label</text><g class="I G M N"><path paint-order="fill stroke markers" d="M420 45V10m-8 60c0-20 8-5 8-25" class="H"/><path paint-order="fill stroke markers" d="M300 45V10m-40 75c0-20 40-20 40-40" class="P"/></g><use xlink:href="#B" class="J"/><text y="50" x="329.989" class="B C D E F">40</text><text y="50" x="249.989" class="B C D E F">30</text><text y="50" x="169.989" class="B C D E F">20</text><text y="50" x="89.989" class="B C D E F">10</text><g class="G H I"><path paint-order="fill stroke markers" d="M420 4v32M340 4v32M260 4v32M180 4v32M100 4v32M20 4v32" class="K"/><path paint-order="fill stroke markers" d="M380 6.5v27m-80-27v27m-80-27v27m-80-27v27m-80-27v27m352-21v15m-8-15v15m-8-15v15m-8-15v15m-16-15v15m-8-15v15m-8-15v15m-8-15v15m-16-15v15m-8-15v15m-8-15v15m-8-15v15m-16-15v15m-8-15v15m-8-15v15m-8-15v15m-16-15v15m-8-15v15m-8-15v15m-8-15v15m-16-15v15m-8-15v15m-8-15v15m-8-15v15m-16-15v15m-8-15v15m-8-15v15m-8-15v15m-16-15v15m-8-15v15m-8-15v15m-8-15v15m-16-15v15m-8-15v15m-8-15v15m-8-15v15m-16-15v15m-8-15v15m-8-15v15m-8-15v15"/></g><use xlink:href="#C" paint-order="fill stroke markers" class="G H"/><g class="I G H"><path paint-order="fill stroke markers" d="M420 20h30M20 20h400"/><use xlink:href="#D" paint-order="fill stroke markers"/></g><text x="387.532" y="82.5" class="B C D E L">Label</text><g class="G H O"><use xlink:href="#E" paint-order="fill stroke markers"/><use xlink:href="#F" paint-order="fill stroke markers"/></g><text x="128.877" y="92.5" class="B C D E L">10</text><use xlink:href="#D" x="-368" paint-order="fill stroke markers" class="G H I"/><text x="19.532" y="82.5" class="B C D E L">Label</text><g class="I G M N"><path paint-order="fill stroke markers" d="M420 45V10m-8 60c0-20 8-5 8-25" class="H"/><path paint-order="fill stroke markers" d="M300 45V10m-40 75c0-20 40-20 40-40" class="P"/></g><use xlink:href="#B" class="J"/><text y="50" x="329.989" class="B C D E F">40</text><text y="50" x="249.989" class="B C D E F">30</text><text y="50" x="169.989" class="B C D E F">20</text><text y="50" x="89.989" class="B C D E F">10</text><g class="G H I"><path paint-order="fill stroke markers" d="M420 4v32M340 4v32M260 4v32M180 4v32M100 4v32M20 4v32" class="K"/><path paint-order="fill stroke markers" d="M380 6.5v27m-80-27v27m-80-27v27m-80-27v27m-80-27v27m352-21v15m-8-15v15m-8-15v15m-8-15v15m-16-15v15m-8-15v15m-8-15v15m-8-15v15m-16-15v15m-8-15v15m-8-15v15m-8-15v15m-16-15v15m-8-15v15m-8-15v15m-8-15v15m-16-15v15m-8-15v15m-8-15v15m-8-15v15m-16-15v15m-8-15v15m-8-15v15m-8-15v15m-16-15v15m-8-15v15m-8-15v15m-8-15v15m-16-15v15m-8-15v15m-8-15v15m-8-15v15m-16-15v15m-8-15v15m-8-15v15m-8-15v15m-16-15v15m-8-15v15m-8-15v15m-8-15v15"/></g><use xlink:href="#C" paint-order="fill stroke markers" class="G H"/><g class="I G H"><path paint-order="fill stroke markers" d="M420 20h30M20 20h400"/><use xlink:href="#D" paint-order="fill stroke markers"/></g><text x="387.532" y="82.5" class="B C D E L">Label</text><g class="G H O"><use xlink:href="#E" paint-order="fill stroke markers"/><use xlink:href="#F" paint-order="fill stroke markers"/></g><text x="128.877" y="92.5" class="B C D E L">10</text><use xlink:href="#D" x="-368" paint-order="fill stroke markers" class="G H I"/><text x="19.532" y="82.5" class="B C D E L">Label</text><g class="I G M N"><path paint-order="fill stroke markers" d="M420 45V10m-8 60c0-20 8-5 8-25" class="H"/><path paint-order="fill stroke markers" d="M300 45V10m-40 75c0-20 40-20 40-40" class="P"/><path paint-order="fill stroke markers" d="M20 45V10" class="H"/></g><use xlink:href="#B" class="J"/><text y="50" x="329.989" class="B C D E F">40</text><text y="50" x="249.989" class="B C D E F">30</text><text y="50" x="169.989" class="B C D E F">20</text><text y="50" x="89.989" class="B C D E F">10</text><g class="G H I"><path paint-order="fill stroke markers" d="M420 4v32M340 4v32M260 4v32M180 4v32M100 4v32M20 4v32" class="K"/><path paint-order="fill stroke markers" d="M380 6.5v27m-80-27v27m-80-27v27m-80-27v27m-80-27v27m352-21v15m-8-15v15m-8-15v15m-8-15v15m-16-15v15m-8-15v15m-8-15v15m-8-15v15m-16-15v15m-8-15v15m-8-15v15m-8-15v15m-16-15v15m-8-15v15m-8-15v15m-8-15v15m-16-15v15m-8-15v15m-8-15v15m-8-15v15m-16-15v15m-8-15v15m-8-15v15m-8-15v15m-16-15v15m-8-15v15m-8-15v15m-8-15v15m-16-15v15m-8-15v15m-8-15v15m-8-15v15m-16-15v15m-8-15v15m-8-15v15m-8-15v15m-16-15v15m-8-15v15m-8-15v15m-8-15v15"/></g><use xlink:href="#C" paint-order="fill stroke markers" class="G H"/><g class="I G H"><path paint-order="fill stroke markers" d="M420 20h30M20 20h400"/><use xlink:href="#D" paint-order="fill stroke markers"/></g><text x="387.532" y="82.5" class="B C D E L">Label</text><g class="G H O"><use xlink:href="#E" paint-order="fill stroke markers"/><use xlink:href="#F" paint-order="fill stroke markers"/></g><text x="128.877" y="92.5" class="B C D E L">10</text><use xlink:href="#D" x="-368" paint-order="fill stroke markers" class="G H I"/><text x="19.532" y="82.5" class="B C D E L">Label</text><g class="I G M N"><path paint-order="fill stroke markers" d="M420 45V10m-8 60c0-20 8-5 8-25" class="H"/><path paint-order="fill stroke markers" d="M300 45V10m-40 75c0-20 40-20 40-40" class="P"/><path paint-order="fill stroke markers" d="M20 45V10m24 60c0-20-24-5-24-25" class="H"/></g><defs ><path id="B" d="M0 0h500v118H0z"/><path id="C" d="M432 14l18 6-18 6z"/><path id="D" d="M383.5 70h57 0a4 4 0 0 1 4 4v17h0a4 4 0 0 1-4 4h-57 0a4 4 0 0 1-4-4V74h0a4 4 0 0 1 4-4z"/><path id="E" d="M231.5 85h57 0a4 4 0 0 1 4 4v17h0a4 4 0 0 1-4 4h-57 0a4 4 0 0 1-4-4V89h0a4 4 0 0 1 4-4z"/><path id="F" d="M111.5 80h57 0a4 4 0 0 1 4 4v17h0a4 4 0 0 1-4 4h-57 0a4 4 0 0 1-4-4V84h0a4 4 0 0 1 4-4z"/></defs></svg>