<svg xmlns="http://www.w3.org/2000/svg" width="207" height="92" xmlns:v="https://vecta.io/nano"><style><![CDATA[.B{stroke:#000}.C{stroke-miterlimit:10}.D{stroke-width:3}]]></style><g fill="#fff"><path d="M0 0h207v92H0z"/><path d="M0 0h207v92H0z"/></g><g fill="none" class="B C D"><path paint-order="fill stroke markers" d="M2 2h50v30H2V2z"/><path paint-order="fill stroke markers" d="M52 2h50v30H52V2z"/><path paint-order="fill stroke markers" d="M2 32h50v30H2V32z"/><path paint-order="fill stroke markers" d="M52 32h50v30H52V32z"/></g><path fill="#00f" paint-order="fill stroke markers" d="M2 62h100v30H2V62z" class="B C D"/><g fill="none" class="B C D"><path paint-order="fill stroke markers" d="M102 2h50v60h-50V2z"/><path paint-order="fill stroke markers" d="M102 62h50v30h-50V62z"/></g><path fill="#00f" paint-order="fill stroke markers" d="M152 2h50v60h-50V2z" class="B C D"/><path fill="none" paint-order="fill stroke markers" d="M152 62h50v30h-50V62z" class="B C D"/></svg>